STARTFONT 2.1
FONT cp437-8x8
SIZE 8 100 100
FONTBOUNDINGBOX 8 8 0 0
STARTPROPERTIES 9
PIXEL_SIZE 8
POINT_SIZE 1
RESOLUTION_X 100
RESOLUTION_Y 100
FONT_ASCENT 8
FONT_DESCENT 0
AVERAGE_WIDTH 80
SPACING "C"
DEFAULT_CHAR 32
ENDPROPERTIES
CHARS 256
STARTCHAR 0
ENCODING 0
SWIDTH 720 0
DWIDTH 8 0
BBX 8 8 0 0
BITMAP
00
00
00
00
00
00
00
00
ENDCHAR
STARTCHAR 1
ENCODING 1
SWIDTH 720 0
DWIDTH 8 0
BBX 8 8 0 0
BITMAP
7e
81
a5
81
bd
99
81
7e
ENDCHAR
STARTCHAR 2
ENCODING 2
SWIDTH 720 0
DWIDTH 8 0
BBX 8 8 0 0
BITMAP
7e
ff
db
ff
c3
e7
ff
7e
ENDCHAR
STARTCHAR 3
ENCODING 3
SWIDTH 720 0
DWIDTH 8 0
BBX 8 8 0 0
BITMAP
6c
fe
fe
fe
7c
38
10
00
ENDCHAR
STARTCHAR 4
ENCODING 4
SWIDTH 720 0
DWIDTH 8 0
BBX 8 8 0 0
BITMAP
10
38
7c
fe
7c
38
10
00
ENDCHAR
STARTCHAR 5
ENCODING 5
SWIDTH 720 0
DWIDTH 8 0
BBX 8 8 0 0
BITMAP
38
7c
38
fe
fe
d6
10
38
ENDCHAR
STARTCHAR 6
ENCODING 6
SWIDTH 720 0
DWIDTH 8 0
BBX 8 8 0 0
BITMAP
10
10
38
7c
fe
7c
10
38
ENDCHAR
STARTCHAR 7
ENCODING 7
SWIDTH 720 0
DWIDTH 8 0
BBX 8 8 0 0
BITMAP
00
00
18
3c
3c
18
00
00
ENDCHAR
STARTCHAR 8
ENCODING 8
SWIDTH 720 0
DWIDTH 8 0
BBX 8 8 0 0
BITMAP
ff
ff
e7
c3
c3
e7
ff
ff
ENDCHAR
STARTCHAR 9
ENCODING 9
SWIDTH 720 0
DWIDTH 8 0
BBX 8 8 0 0
BITMAP
00
3c
66
42
42
66
3c
00
ENDCHAR
STARTCHAR 10
ENCODING 10
SWIDTH 720 0
DWIDTH 8 0
BBX 8 8 0 0
BITMAP
ff
c3
99
bd
bd
99
c3
ff
ENDCHAR
STARTCHAR 11
ENCODING 11
SWIDTH 720 0
DWIDTH 8 0
BBX 8 8 0 0
BITMAP
0f
07
0f
7d
cc
cc
cc
78
ENDCHAR
STARTCHAR 12
ENCODING 12
SWIDTH 720 0
DWIDTH 8 0
BBX 8 8 0 0
BITMAP
3c
66
66
66
3c
18
7e
18
ENDCHAR
STARTCHAR 13
ENCODING 13
SWIDTH 720 0
DWIDTH 8 0
BBX 8 8 0 0
BITMAP
3f
33
3f
30
30
70
f0
e0
ENDCHAR
STARTCHAR 14
ENCODING 14
SWIDTH 720 0
DWIDTH 8 0
BBX 8 8 0 0
BITMAP
7f
63
7f
63
63
67
e6
c0
ENDCHAR
STARTCHAR 15
ENCODING 15
SWIDTH 720 0
DWIDTH 8 0
BBX 8 8 0 0
BITMAP
99
5a
3c
e7
e7
3c
5a
99
ENDCHAR
STARTCHAR 16
ENCODING 16
SWIDTH 720 0
DWIDTH 8 0
BBX 8 8 0 0
BITMAP
80
e0
f8
fe
f8
e0
80
00
ENDCHAR
STARTCHAR 17
ENCODING 17
SWIDTH 720 0
DWIDTH 8 0
BBX 8 8 0 0
BITMAP
02
0e
3e
fe
3e
0e
02
00
ENDCHAR
STARTCHAR 18
ENCODING 18
SWIDTH 720 0
DWIDTH 8 0
BBX 8 8 0 0
BITMAP
18
3c
7e
18
18
7e
3c
18
ENDCHAR
STARTCHAR 19
ENCODING 19
SWIDTH 720 0
DWIDTH 8 0
BBX 8 8 0 0
BITMAP
66
66
66
66
66
00
66
00
ENDCHAR
STARTCHAR 20
ENCODING 20
SWIDTH 720 0
DWIDTH 8 0
BBX 8 8 0 0
BITMAP
7f
db
db
7b
1b
1b
1b
00
ENDCHAR
STARTCHAR 21
ENCODING 21
SWIDTH 720 0
DWIDTH 8 0
BBX 8 8 0 0
BITMAP
7e
c3
78
cc
cc
78
8c
f8
ENDCHAR
STARTCHAR 22
ENCODING 22
SWIDTH 720 0
DWIDTH 8 0
BBX 8 8 0 0
BITMAP
00
00
00
00
7e
7e
7e
00
ENDCHAR
STARTCHAR 23
ENCODING 23
SWIDTH 720 0
DWIDTH 8 0
BBX 8 8 0 0
BITMAP
18
3c
7e
18
7e
3c
18
ff
ENDCHAR
STARTCHAR 24
ENCODING 24
SWIDTH 720 0
DWIDTH 8 0
BBX 8 8 0 0
BITMAP
18
3c
7e
18
18
18
18
00
ENDCHAR
STARTCHAR 25
ENCODING 25
SWIDTH 720 0
DWIDTH 8 0
BBX 8 8 0 0
BITMAP
18
18
18
18
7e
3c
18
00
ENDCHAR
STARTCHAR 26
ENCODING 26
SWIDTH 720 0
DWIDTH 8 0
BBX 8 8 0 0
BITMAP
00
18
0c
fe
0c
18
00
00
ENDCHAR
STARTCHAR 27
ENCODING 27
SWIDTH 720 0
DWIDTH 8 0
BBX 8 8 0 0
BITMAP
00
30
60
fe
60
30
00
00
ENDCHAR
STARTCHAR 28
ENCODING 28
SWIDTH 720 0
DWIDTH 8 0
BBX 8 8 0 0
BITMAP
00
00
c0
c0
c0
fe
00
00
ENDCHAR
STARTCHAR 29
ENCODING 29
SWIDTH 720 0
DWIDTH 8 0
BBX 8 8 0 0
BITMAP
00
24
66
ff
66
24
00
00
ENDCHAR
STARTCHAR 30
ENCODING 30
SWIDTH 720 0
DWIDTH 8 0
BBX 8 8 0 0
BITMAP
00
18
3c
7e
ff
ff
00
00
ENDCHAR
STARTCHAR 31
ENCODING 31
SWIDTH 720 0
DWIDTH 8 0
BBX 8 8 0 0
BITMAP
00
ff
ff
7e
3c
18
00
00
ENDCHAR
STARTCHAR 32
ENCODING 32
SWIDTH 720 0
DWIDTH 8 0
BBX 8 8 0 0
BITMAP
00
00
00
00
00
00
00
00
ENDCHAR
STARTCHAR 33
ENCODING 33
SWIDTH 720 0
DWIDTH 8 0
BBX 8 8 0 0
BITMAP
30
78
78
30
30
00
30
00
ENDCHAR
STARTCHAR 34
ENCODING 34
SWIDTH 720 0
DWIDTH 8 0
BBX 8 8 0 0
BITMAP
6c
6c
6c
00
00
00
00
00
ENDCHAR
STARTCHAR 35
ENCODING 35
SWIDTH 720 0
DWIDTH 8 0
BBX 8 8 0 0
BITMAP
6c
6c
fe
6c
fe
6c
6c
00
ENDCHAR
STARTCHAR 36
ENCODING 36
SWIDTH 720 0
DWIDTH 8 0
BBX 8 8 0 0
BITMAP
30
7c
c0
78
0c
f8
30
00
ENDCHAR
STARTCHAR 37
ENCODING 37
SWIDTH 720 0
DWIDTH 8 0
BBX 8 8 0 0
BITMAP
00
c6
cc
18
30
66
c6
00
ENDCHAR
STARTCHAR 38
ENCODING 38
SWIDTH 720 0
DWIDTH 8 0
BBX 8 8 0 0
BITMAP
38
6c
38
76
dc
cc
76
00
ENDCHAR
STARTCHAR 39
ENCODING 39
SWIDTH 720 0
DWIDTH 8 0
BBX 8 8 0 0
BITMAP
60
60
c0
00
00
00
00
00
ENDCHAR
STARTCHAR 40
ENCODING 40
SWIDTH 720 0
DWIDTH 8 0
BBX 8 8 0 0
BITMAP
18
30
60
60
60
30
18
00
ENDCHAR
STARTCHAR 41
ENCODING 41
SWIDTH 720 0
DWIDTH 8 0
BBX 8 8 0 0
BITMAP
60
30
18
18
18
30
60
00
ENDCHAR
STARTCHAR 42
ENCODING 42
SWIDTH 720 0
DWIDTH 8 0
BBX 8 8 0 0
BITMAP
00
66
3c
ff
3c
66
00
00
ENDCHAR
STARTCHAR 43
ENCODING 43
SWIDTH 720 0
DWIDTH 8 0
BBX 8 8 0 0
BITMAP
00
30
30
fc
30
30
00
00
ENDCHAR
STARTCHAR 44
ENCODING 44
SWIDTH 720 0
DWIDTH 8 0
BBX 8 8 0 0
BITMAP
00
00
00
00
00
70
30
60
ENDCHAR
STARTCHAR 45
ENCODING 45
SWIDTH 720 0
DWIDTH 8 0
BBX 8 8 0 0
BITMAP
00
00
00
fc
00
00
00
00
ENDCHAR
STARTCHAR 46
ENCODING 46
SWIDTH 720 0
DWIDTH 8 0
BBX 8 8 0 0
BITMAP
00
00
00
00
00
30
30
00
ENDCHAR
STARTCHAR 47
ENCODING 47
SWIDTH 720 0
DWIDTH 8 0
BBX 8 8 0 0
BITMAP
06
0c
18
30
60
c0
80
00
ENDCHAR
STARTCHAR 48
ENCODING 48
SWIDTH 720 0
DWIDTH 8 0
BBX 8 8 0 0
BITMAP
78
cc
dc
fc
ec
cc
78
00
ENDCHAR
STARTCHAR 49
ENCODING 49
SWIDTH 720 0
DWIDTH 8 0
BBX 8 8 0 0
BITMAP
30
f0
30
30
30
30
fc
00
ENDCHAR
STARTCHAR 50
ENCODING 50
SWIDTH 720 0
DWIDTH 8 0
BBX 8 8 0 0
BITMAP
78
cc
0c
38
60
cc
fc
00
ENDCHAR
STARTCHAR 51
ENCODING 51
SWIDTH 720 0
DWIDTH 8 0
BBX 8 8 0 0
BITMAP
78
cc
0c
38
0c
cc
78
00
ENDCHAR
STARTCHAR 52
ENCODING 52
SWIDTH 720 0
DWIDTH 8 0
BBX 8 8 0 0
BITMAP
1c
3c
6c
cc
fe
0c
0c
00
ENDCHAR
STARTCHAR 53
ENCODING 53
SWIDTH 720 0
DWIDTH 8 0
BBX 8 8 0 0
BITMAP
fc
c0
f8
0c
0c
cc
78
00
ENDCHAR
STARTCHAR 54
ENCODING 54
SWIDTH 720 0
DWIDTH 8 0
BBX 8 8 0 0
BITMAP
38
60
c0
f8
cc
cc
78
00
ENDCHAR
STARTCHAR 55
ENCODING 55
SWIDTH 720 0
DWIDTH 8 0
BBX 8 8 0 0
BITMAP
fc
cc
0c
18
30
60
60
00
ENDCHAR
STARTCHAR 56
ENCODING 56
SWIDTH 720 0
DWIDTH 8 0
BBX 8 8 0 0
BITMAP
78
cc
cc
78
cc
cc
78
00
ENDCHAR
STARTCHAR 57
ENCODING 57
SWIDTH 720 0
DWIDTH 8 0
BBX 8 8 0 0
BITMAP
78
cc
cc
7c
0c
18
70
00
ENDCHAR
STARTCHAR 58
ENCODING 58
SWIDTH 720 0
DWIDTH 8 0
BBX 8 8 0 0
BITMAP
00
00
30
30
00
30
30
00
ENDCHAR
STARTCHAR 59
ENCODING 59
SWIDTH 720 0
DWIDTH 8 0
BBX 8 8 0 0
BITMAP
00
00
30
30
00
70
30
60
ENDCHAR
STARTCHAR 60
ENCODING 60
SWIDTH 720 0
DWIDTH 8 0
BBX 8 8 0 0
BITMAP
18
30
60
c0
60
30
18
00
ENDCHAR
STARTCHAR 61
ENCODING 61
SWIDTH 720 0
DWIDTH 8 0
BBX 8 8 0 0
BITMAP
00
00
fc
00
fc
00
00
00
ENDCHAR
STARTCHAR 62
ENCODING 62
SWIDTH 720 0
DWIDTH 8 0
BBX 8 8 0 0
BITMAP
60
30
18
0c
18
30
60
00
ENDCHAR
STARTCHAR 63
ENCODING 63
SWIDTH 720 0
DWIDTH 8 0
BBX 8 8 0 0
BITMAP
78
cc
0c
18
30
00
30
00
ENDCHAR
STARTCHAR 64
ENCODING 64
SWIDTH 720 0
DWIDTH 8 0
BBX 8 8 0 0
BITMAP
7c
c6
de
de
de
c0
78
00
ENDCHAR
STARTCHAR 65
ENCODING 65
SWIDTH 720 0
DWIDTH 8 0
BBX 8 8 0 0
BITMAP
30
78
cc
cc
fc
cc
cc
00
ENDCHAR
STARTCHAR 66
ENCODING 66
SWIDTH 720 0
DWIDTH 8 0
BBX 8 8 0 0
BITMAP
fc
66
66
7c
66
66
fc
00
ENDCHAR
STARTCHAR 67
ENCODING 67
SWIDTH 720 0
DWIDTH 8 0
BBX 8 8 0 0
BITMAP
3c
66
c0
c0
c0
66
3c
00
ENDCHAR
STARTCHAR 68
ENCODING 68
SWIDTH 720 0
DWIDTH 8 0
BBX 8 8 0 0
BITMAP
fc
6c
66
66
66
6c
fc
00
ENDCHAR
STARTCHAR 69
ENCODING 69
SWIDTH 720 0
DWIDTH 8 0
BBX 8 8 0 0
BITMAP
fe
62
68
78
68
62
fe
00
ENDCHAR
STARTCHAR 70
ENCODING 70
SWIDTH 720 0
DWIDTH 8 0
BBX 8 8 0 0
BITMAP
fe
62
68
78
68
60
f0
00
ENDCHAR
STARTCHAR 71
ENCODING 71
SWIDTH 720 0
DWIDTH 8 0
BBX 8 8 0 0
BITMAP
3c
66
c0
c0
ce
66
3e
00
ENDCHAR
STARTCHAR 72
ENCODING 72
SWIDTH 720 0
DWIDTH 8 0
BBX 8 8 0 0
BITMAP
cc
cc
cc
fc
cc
cc
cc
00
ENDCHAR
STARTCHAR 73
ENCODING 73
SWIDTH 720 0
DWIDTH 8 0
BBX 8 8 0 0
BITMAP
78
30
30
30
30
30
78
00
ENDCHAR
STARTCHAR 74
ENCODING 74
SWIDTH 720 0
DWIDTH 8 0
BBX 8 8 0 0
BITMAP
1e
0c
0c
0c
cc
cc
78
00
ENDCHAR
STARTCHAR 75
ENCODING 75
SWIDTH 720 0
DWIDTH 8 0
BBX 8 8 0 0
BITMAP
e6
66
6c
78
6c
66
e6
00
ENDCHAR
STARTCHAR 76
ENCODING 76
SWIDTH 720 0
DWIDTH 8 0
BBX 8 8 0 0
BITMAP
f0
60
60
60
62
66
fe
00
ENDCHAR
STARTCHAR 77
ENCODING 77
SWIDTH 720 0
DWIDTH 8 0
BBX 8 8 0 0
BITMAP
c6
ee
fe
d6
c6
c6
c6
00
ENDCHAR
STARTCHAR 78
ENCODING 78
SWIDTH 720 0
DWIDTH 8 0
BBX 8 8 0 0
BITMAP
c6
e6
f6
de
ce
c6
c6
00
ENDCHAR
STARTCHAR 79
ENCODING 79
SWIDTH 720 0
DWIDTH 8 0
BBX 8 8 0 0
BITMAP
38
6c
c6
c6
c6
6c
38
00
ENDCHAR
STARTCHAR 80
ENCODING 80
SWIDTH 720 0
DWIDTH 8 0
BBX 8 8 0 0
BITMAP
fc
66
66
7c
60
60
f0
00
ENDCHAR
STARTCHAR 81
ENCODING 81
SWIDTH 720 0
DWIDTH 8 0
BBX 8 8 0 0
BITMAP
78
cc
cc
cc
dc
78
1c
00
ENDCHAR
STARTCHAR 82
ENCODING 82
SWIDTH 720 0
DWIDTH 8 0
BBX 8 8 0 0
BITMAP
fc
66
66
7c
78
6c
e6
00
ENDCHAR
STARTCHAR 83
ENCODING 83
SWIDTH 720 0
DWIDTH 8 0
BBX 8 8 0 0
BITMAP
78
cc
e0
38
1c
cc
78
00
ENDCHAR
STARTCHAR 84
ENCODING 84
SWIDTH 720 0
DWIDTH 8 0
BBX 8 8 0 0
BITMAP
fc
b4
30
30
30
30
78
00
ENDCHAR
STARTCHAR 85
ENCODING 85
SWIDTH 720 0
DWIDTH 8 0
BBX 8 8 0 0
BITMAP
cc
cc
cc
cc
cc
cc
fc
00
ENDCHAR
STARTCHAR 86
ENCODING 86
SWIDTH 720 0
DWIDTH 8 0
BBX 8 8 0 0
BITMAP
cc
cc
cc
cc
cc
78
30
00
ENDCHAR
STARTCHAR 87
ENCODING 87
SWIDTH 720 0
DWIDTH 8 0
BBX 8 8 0 0
BITMAP
c6
c6
c6
d6
fe
ee
c6
00
ENDCHAR
STARTCHAR 88
ENCODING 88
SWIDTH 720 0
DWIDTH 8 0
BBX 8 8 0 0
BITMAP
c6
c6
6c
38
6c
c6
c6
00
ENDCHAR
STARTCHAR 89
ENCODING 89
SWIDTH 720 0
DWIDTH 8 0
BBX 8 8 0 0
BITMAP
cc
cc
cc
78
30
30
78
00
ENDCHAR
STARTCHAR 90
ENCODING 90
SWIDTH 720 0
DWIDTH 8 0
BBX 8 8 0 0
BITMAP
fe
cc
98
30
62
c6
fe
00
ENDCHAR
STARTCHAR 91
ENCODING 91
SWIDTH 720 0
DWIDTH 8 0
BBX 8 8 0 0
BITMAP
78
60
60
60
60
60
78
00
ENDCHAR
STARTCHAR 92
ENCODING 92
SWIDTH 720 0
DWIDTH 8 0
BBX 8 8 0 0
BITMAP
c0
60
30
18
0c
06
02
00
ENDCHAR
STARTCHAR 93
ENCODING 93
SWIDTH 720 0
DWIDTH 8 0
BBX 8 8 0 0
BITMAP
78
18
18
18
18
18
78
00
ENDCHAR
STARTCHAR 94
ENCODING 94
SWIDTH 720 0
DWIDTH 8 0
BBX 8 8 0 0
BITMAP
10
38
6c
c6
00
00
00
00
ENDCHAR
STARTCHAR 95
ENCODING 95
SWIDTH 720 0
DWIDTH 8 0
BBX 8 8 0 0
BITMAP
00
00
00
00
00
00
00
ff
ENDCHAR
STARTCHAR 96
ENCODING 96
SWIDTH 720 0
DWIDTH 8 0
BBX 8 8 0 0
BITMAP
30
30
18
00
00
00
00
00
ENDCHAR
STARTCHAR 97
ENCODING 97
SWIDTH 720 0
DWIDTH 8 0
BBX 8 8 0 0
BITMAP
00
00
78
0c
7c
cc
76
00
ENDCHAR
STARTCHAR 98
ENCODING 98
SWIDTH 720 0
DWIDTH 8 0
BBX 8 8 0 0
BITMAP
e0
60
7c
66
66
66
bc
00
ENDCHAR
STARTCHAR 99
ENCODING 99
SWIDTH 720 0
DWIDTH 8 0
BBX 8 8 0 0
BITMAP
00
00
78
cc
c0
cc
78
00
ENDCHAR
STARTCHAR 100
ENCODING 100
SWIDTH 720 0
DWIDTH 8 0
BBX 8 8 0 0
BITMAP
1c
0c
0c
7c
cc
cc
76
00
ENDCHAR
STARTCHAR 101
ENCODING 101
SWIDTH 720 0
DWIDTH 8 0
BBX 8 8 0 0
BITMAP
00
00
78
cc
fc
c0
78
00
ENDCHAR
STARTCHAR 102
ENCODING 102
SWIDTH 720 0
DWIDTH 8 0
BBX 8 8 0 0
BITMAP
38
6c
60
f0
60
60
f0
00
ENDCHAR
STARTCHAR 103
ENCODING 103
SWIDTH 720 0
DWIDTH 8 0
BBX 8 8 0 0
BITMAP
00
00
76
cc
cc
7c
0c
f8
ENDCHAR
STARTCHAR 104
ENCODING 104
SWIDTH 720 0
DWIDTH 8 0
BBX 8 8 0 0
BITMAP
e0
60
6c
76
66
66
e6
00
ENDCHAR
STARTCHAR 105
ENCODING 105
SWIDTH 720 0
DWIDTH 8 0
BBX 8 8 0 0
BITMAP
30
00
70
30
30
30
78
00
ENDCHAR
STARTCHAR 106
ENCODING 106
SWIDTH 720 0
DWIDTH 8 0
BBX 8 8 0 0
BITMAP
18
00
78
18
18
18
d8
70
ENDCHAR
STARTCHAR 107
ENCODING 107
SWIDTH 720 0
DWIDTH 8 0
BBX 8 8 0 0
BITMAP
e0
60
66
6c
78
6c
e6
00
ENDCHAR
STARTCHAR 108
ENCODING 108
SWIDTH 720 0
DWIDTH 8 0
BBX 8 8 0 0
BITMAP
70
30
30
30
30
30
78
00
ENDCHAR
STARTCHAR 109
ENCODING 109
SWIDTH 720 0
DWIDTH 8 0
BBX 8 8 0 0
BITMAP
00
00
ec
fe
d6
c6
c6
00
ENDCHAR
STARTCHAR 110
ENCODING 110
SWIDTH 720 0
DWIDTH 8 0
BBX 8 8 0 0
BITMAP
00
00
f8
cc
cc
cc
cc
00
ENDCHAR
STARTCHAR 111
ENCODING 111
SWIDTH 720 0
DWIDTH 8 0
BBX 8 8 0 0
BITMAP
00
00
78
cc
cc
cc
78
00
ENDCHAR
STARTCHAR 112
ENCODING 112
SWIDTH 720 0
DWIDTH 8 0
BBX 8 8 0 0
BITMAP
00
00
dc
66
66
7c
60
f0
ENDCHAR
STARTCHAR 113
ENCODING 113
SWIDTH 720 0
DWIDTH 8 0
BBX 8 8 0 0
BITMAP
00
00
76
cc
cc
7c
0c
1e
ENDCHAR
STARTCHAR 114
ENCODING 114
SWIDTH 720 0
DWIDTH 8 0
BBX 8 8 0 0
BITMAP
00
00
d8
6c
6c
60
f0
00
ENDCHAR
STARTCHAR 115
ENCODING 115
SWIDTH 720 0
DWIDTH 8 0
BBX 8 8 0 0
BITMAP
00
00
7c
c0
78
0c
f8
00
ENDCHAR
STARTCHAR 116
ENCODING 116
SWIDTH 720 0
DWIDTH 8 0
BBX 8 8 0 0
BITMAP
10
30
7c
30
30
34
18
00
ENDCHAR
STARTCHAR 117
ENCODING 117
SWIDTH 720 0
DWIDTH 8 0
BBX 8 8 0 0
BITMAP
00
00
cc
cc
cc
cc
76
00
ENDCHAR
STARTCHAR 118
ENCODING 118
SWIDTH 720 0
DWIDTH 8 0
BBX 8 8 0 0
BITMAP
00
00
cc
cc
cc
78
30
00
ENDCHAR
STARTCHAR 119
ENCODING 119
SWIDTH 720 0
DWIDTH 8 0
BBX 8 8 0 0
BITMAP
00
00
c6
c6
d6
fe
6c
00
ENDCHAR
STARTCHAR 120
ENCODING 120
SWIDTH 720 0
DWIDTH 8 0
BBX 8 8 0 0
BITMAP
00
00
c6
6c
38
6c
c6
00
ENDCHAR
STARTCHAR 121
ENCODING 121
SWIDTH 720 0
DWIDTH 8 0
BBX 8 8 0 0
BITMAP
00
00
cc
cc
cc
7c
0c
f8
ENDCHAR
STARTCHAR 122
ENCODING 122
SWIDTH 720 0
DWIDTH 8 0
BBX 8 8 0 0
BITMAP
00
00
fc
98
30
64
fc
00
ENDCHAR
STARTCHAR 123
ENCODING 123
SWIDTH 720 0
DWIDTH 8 0
BBX 8 8 0 0
BITMAP
1c
30
30
e0
30
30
1c
00
ENDCHAR
STARTCHAR 124
ENCODING 124
SWIDTH 720 0
DWIDTH 8 0
BBX 8 8 0 0
BITMAP
18
18
18
00
18
18
18
00
ENDCHAR
STARTCHAR 125
ENCODING 125
SWIDTH 720 0
DWIDTH 8 0
BBX 8 8 0 0
BITMAP
e0
30
30
1c
30
30
e0
00
ENDCHAR
STARTCHAR 126
ENCODING 126
SWIDTH 720 0
DWIDTH 8 0
BBX 8 8 0 0
BITMAP
76
dc
00
00
00
00
00
00
ENDCHAR
STARTCHAR 127
ENCODING 127
SWIDTH 720 0
DWIDTH 8 0
BBX 8 8 0 0
BITMAP
10
38
6c
c6
c6
c6
fe
00
ENDCHAR
STARTCHAR 128
ENCODING 128
SWIDTH 720 0
DWIDTH 8 0
BBX 8 8 0 0
BITMAP
78
cc
c0
cc
78
18
0c
78
ENDCHAR
STARTCHAR 129
ENCODING 129
SWIDTH 720 0
DWIDTH 8 0
BBX 8 8 0 0
BITMAP
00
cc
00
cc
cc
cc
7e
00
ENDCHAR
STARTCHAR 130
ENCODING 130
SWIDTH 720 0
DWIDTH 8 0
BBX 8 8 0 0
BITMAP
1c
00
78
cc
fc
c0
78
00
ENDCHAR
STARTCHAR 131
ENCODING 131
SWIDTH 720 0
DWIDTH 8 0
BBX 8 8 0 0
BITMAP
7e
c3
3c
06
3e
66
3f
00
ENDCHAR
STARTCHAR 132
ENCODING 132
SWIDTH 720 0
DWIDTH 8 0
BBX 8 8 0 0
BITMAP
cc
00
78
0c
7c
cc
7e
00
ENDCHAR
STARTCHAR 133
ENCODING 133
SWIDTH 720 0
DWIDTH 8 0
BBX 8 8 0 0
BITMAP
e0
00
78
0c
7c
cc
7e
00
ENDCHAR
STARTCHAR 134
ENCODING 134
SWIDTH 720 0
DWIDTH 8 0
BBX 8 8 0 0
BITMAP
30
30
78
0c
7c
cc
7e
00
ENDCHAR
STARTCHAR 135
ENCODING 135
SWIDTH 720 0
DWIDTH 8 0
BBX 8 8 0 0
BITMAP
00
00
7c
c0
c0
7c
06
3c
ENDCHAR
STARTCHAR 136
ENCODING 136
SWIDTH 720 0
DWIDTH 8 0
BBX 8 8 0 0
BITMAP
7e
c3
3c
66
7e
60
3c
00
ENDCHAR
STARTCHAR 137
ENCODING 137
SWIDTH 720 0
DWIDTH 8 0
BBX 8 8 0 0
BITMAP
cc
00
78
cc
fc
c0
78
00
ENDCHAR
STARTCHAR 138
ENCODING 138
SWIDTH 720 0
DWIDTH 8 0
BBX 8 8 0 0
BITMAP
e0
00
78
cc
fc
c0
78
00
ENDCHAR
STARTCHAR 139
ENCODING 139
SWIDTH 720 0
DWIDTH 8 0
BBX 8 8 0 0
BITMAP
cc
00
70
30
30
30
78
00
ENDCHAR
STARTCHAR 140
ENCODING 140
SWIDTH 720 0
DWIDTH 8 0
BBX 8 8 0 0
BITMAP
7c
c6
38
18
18
18
3c
00
ENDCHAR
STARTCHAR 141
ENCODING 141
SWIDTH 720 0
DWIDTH 8 0
BBX 8 8 0 0
BITMAP
e0
00
70
30
30
30
78
00
ENDCHAR
STARTCHAR 142
ENCODING 142
SWIDTH 720 0
DWIDTH 8 0
BBX 8 8 0 0
BITMAP
cc
30
78
cc
cc
fc
cc
00
ENDCHAR
STARTCHAR 143
ENCODING 143
SWIDTH 720 0
DWIDTH 8 0
BBX 8 8 0 0
BITMAP
30
30
00
78
cc
fc
cc
00
ENDCHAR
STARTCHAR 144
ENCODING 144
SWIDTH 720 0
DWIDTH 8 0
BBX 8 8 0 0
BITMAP
1c
00
fc
60
78
60
fc
00
ENDCHAR
STARTCHAR 145
ENCODING 145
SWIDTH 720 0
DWIDTH 8 0
BBX 8 8 0 0
BITMAP
00
00
7f
0c
7f
cc
7f
00
ENDCHAR
STARTCHAR 146
ENCODING 146
SWIDTH 720 0
DWIDTH 8 0
BBX 8 8 0 0
BITMAP
3e
6c
cc
fe
cc
cc
ce
00
ENDCHAR
STARTCHAR 147
ENCODING 147
SWIDTH 720 0
DWIDTH 8 0
BBX 8 8 0 0
BITMAP
78
cc
00
78
cc
cc
78
00
ENDCHAR
STARTCHAR 148
ENCODING 148
SWIDTH 720 0
DWIDTH 8 0
BBX 8 8 0 0
BITMAP
00
cc
00
78
cc
cc
78
00
ENDCHAR
STARTCHAR 149
ENCODING 149
SWIDTH 720 0
DWIDTH 8 0
BBX 8 8 0 0
BITMAP
00
e0
00
78
cc
cc
78
00
ENDCHAR
STARTCHAR 150
ENCODING 150
SWIDTH 720 0
DWIDTH 8 0
BBX 8 8 0 0
BITMAP
78
cc
00
cc
cc
cc
7e
00
ENDCHAR
STARTCHAR 151
ENCODING 151
SWIDTH 720 0
DWIDTH 8 0
BBX 8 8 0 0
BITMAP
00
e0
00
cc
cc
cc
7e
00
ENDCHAR
STARTCHAR 152
ENCODING 152
SWIDTH 720 0
DWIDTH 8 0
BBX 8 8 0 0
BITMAP
00
cc
00
cc
cc
fc
0c
f8
ENDCHAR
STARTCHAR 153
ENCODING 153
SWIDTH 720 0
DWIDTH 8 0
BBX 8 8 0 0
BITMAP
c6
38
7c
c6
c6
7c
38
00
ENDCHAR
STARTCHAR 154
ENCODING 154
SWIDTH 720 0
DWIDTH 8 0
BBX 8 8 0 0
BITMAP
cc
00
cc
cc
cc
cc
78
00
ENDCHAR
STARTCHAR 155
ENCODING 155
SWIDTH 720 0
DWIDTH 8 0
BBX 8 8 0 0
BITMAP
18
18
7e
c0
c0
7e
18
18
ENDCHAR
STARTCHAR 156
ENCODING 156
SWIDTH 720 0
DWIDTH 8 0
BBX 8 8 0 0
BITMAP
38
6c
64
f0
60
e6
fc
00
ENDCHAR
STARTCHAR 157
ENCODING 157
SWIDTH 720 0
DWIDTH 8 0
BBX 8 8 0 0
BITMAP
cc
cc
78
fc
30
fc
30
00
ENDCHAR
STARTCHAR 158
ENCODING 158
SWIDTH 720 0
DWIDTH 8 0
BBX 8 8 0 0
BITMAP
f0
d8
d8
f4
cc
de
cc
0e
ENDCHAR
STARTCHAR 159
ENCODING 159
SWIDTH 720 0
DWIDTH 8 0
BBX 8 8 0 0
BITMAP
0e
1b
18
7e
18
18
d8
70
ENDCHAR
STARTCHAR 160
ENCODING 160
SWIDTH 720 0
DWIDTH 8 0
BBX 8 8 0 0
BITMAP
1c
00
78
0c
7c
cc
7e
00
ENDCHAR
STARTCHAR 161
ENCODING 161
SWIDTH 720 0
DWIDTH 8 0
BBX 8 8 0 0
BITMAP
38
00
70
30
30
30
78
00
ENDCHAR
STARTCHAR 162
ENCODING 162
SWIDTH 720 0
DWIDTH 8 0
BBX 8 8 0 0
BITMAP
00
1c
00
78
cc
cc
78
00
ENDCHAR
STARTCHAR 163
ENCODING 163
SWIDTH 720 0
DWIDTH 8 0
BBX 8 8 0 0
BITMAP
00
1c
00
cc
cc
cc
7e
00
ENDCHAR
STARTCHAR 164
ENCODING 164
SWIDTH 720 0
DWIDTH 8 0
BBX 8 8 0 0
BITMAP
00
f8
00
f8
cc
cc
cc
00
ENDCHAR
STARTCHAR 165
ENCODING 165
SWIDTH 720 0
DWIDTH 8 0
BBX 8 8 0 0
BITMAP
fc
00
cc
ec
fc
dc
cc
00
ENDCHAR
STARTCHAR 166
ENCODING 166
SWIDTH 720 0
DWIDTH 8 0
BBX 8 8 0 0
BITMAP
3c
6c
6c
3e
00
7e
00
00
ENDCHAR
STARTCHAR 167
ENCODING 167
SWIDTH 720 0
DWIDTH 8 0
BBX 8 8 0 0
BITMAP
3c
66
66
3c
00
7e
00
00
ENDCHAR
STARTCHAR 168
ENCODING 168
SWIDTH 720 0
DWIDTH 8 0
BBX 8 8 0 0
BITMAP
30
00
30
60
c0
cc
78
00
ENDCHAR
STARTCHAR 169
ENCODING 169
SWIDTH 720 0
DWIDTH 8 0
BBX 8 8 0 0
BITMAP
00
00
00
fc
c0
c0
00
00
ENDCHAR
STARTCHAR 170
ENCODING 170
SWIDTH 720 0
DWIDTH 8 0
BBX 8 8 0 0
BITMAP
00
00
00
fc
0c
0c
00
00
ENDCHAR
STARTCHAR 171
ENCODING 171
SWIDTH 720 0
DWIDTH 8 0
BBX 8 8 0 0
BITMAP
c6
cc
d8
3e
63
ce
98
1f
ENDCHAR
STARTCHAR 172
ENCODING 172
SWIDTH 720 0
DWIDTH 8 0
BBX 8 8 0 0
BITMAP
c6
cc
d8
f3
67
cf
9f
03
ENDCHAR
STARTCHAR 173
ENCODING 173
SWIDTH 720 0
DWIDTH 8 0
BBX 8 8 0 0
BITMAP
00
18
00
18
18
3c
3c
18
ENDCHAR
STARTCHAR 174
ENCODING 174
SWIDTH 720 0
DWIDTH 8 0
BBX 8 8 0 0
BITMAP
00
33
66
cc
66
33
00
00
ENDCHAR
STARTCHAR 175
ENCODING 175
SWIDTH 720 0
DWIDTH 8 0
BBX 8 8 0 0
BITMAP
00
cc
66
33
66
cc
00
00
ENDCHAR
STARTCHAR 176
ENCODING 176
SWIDTH 720 0
DWIDTH 8 0
BBX 8 8 0 0
BITMAP
22
88
22
88
22
88
22
88
ENDCHAR
STARTCHAR 177
ENCODING 177
SWIDTH 720 0
DWIDTH 8 0
BBX 8 8 0 0
BITMAP
55
aa
55
aa
55
aa
55
aa
ENDCHAR
STARTCHAR 178
ENCODING 178
SWIDTH 720 0
DWIDTH 8 0
BBX 8 8 0 0
BITMAP
dd
77
dd
77
dd
77
dd
77
ENDCHAR
STARTCHAR 179
ENCODING 179
SWIDTH 720 0
DWIDTH 8 0
BBX 8 8 0 0
BITMAP
18
18
18
18
18
18
18
18
ENDCHAR
STARTCHAR 180
ENCODING 180
SWIDTH 720 0
DWIDTH 8 0
BBX 8 8 0 0
BITMAP
18
18
18
18
f8
18
18
18
ENDCHAR
STARTCHAR 181
ENCODING 181
SWIDTH 720 0
DWIDTH 8 0
BBX 8 8 0 0
BITMAP
18
18
f8
18
f8
18
18
18
ENDCHAR
STARTCHAR 182
ENCODING 182
SWIDTH 720 0
DWIDTH 8 0
BBX 8 8 0 0
BITMAP
36
36
36
36
f6
36
36
36
ENDCHAR
STARTCHAR 183
ENCODING 183
SWIDTH 720 0
DWIDTH 8 0
BBX 8 8 0 0
BITMAP
00
00
00
00
fe
36
36
36
ENDCHAR
STARTCHAR 184
ENCODING 184
SWIDTH 720 0
DWIDTH 8 0
BBX 8 8 0 0
BITMAP
00
00
f8
18
f8
18
18
18
ENDCHAR
STARTCHAR 185
ENCODING 185
SWIDTH 720 0
DWIDTH 8 0
BBX 8 8 0 0
BITMAP
36
36
f6
06
f6
36
36
36
ENDCHAR
STARTCHAR 186
ENCODING 186
SWIDTH 720 0
DWIDTH 8 0
BBX 8 8 0 0
BITMAP
36
36
36
36
36
36
36
36
ENDCHAR
STARTCHAR 187
ENCODING 187
SWIDTH 720 0
DWIDTH 8 0
BBX 8 8 0 0
BITMAP
00
00
fe
06
f6
36
36
36
ENDCHAR
STARTCHAR 188
ENCODING 188
SWIDTH 720 0
DWIDTH 8 0
BBX 8 8 0 0
BITMAP
36
36
f6
06
fe
00
00
00
ENDCHAR
STARTCHAR 189
ENCODING 189
SWIDTH 720 0
DWIDTH 8 0
BBX 8 8 0 0
BITMAP
36
36
36
36
fe
00
00
00
ENDCHAR
STARTCHAR 190
ENCODING 190
SWIDTH 720 0
DWIDTH 8 0
BBX 8 8 0 0
BITMAP
18
18
f8
18
f8
00
00
00
ENDCHAR
STARTCHAR 191
ENCODING 191
SWIDTH 720 0
DWIDTH 8 0
BBX 8 8 0 0
BITMAP
00
00
00
00
f8
18
18
18
ENDCHAR
STARTCHAR 192
ENCODING 192
SWIDTH 720 0
DWIDTH 8 0
BBX 8 8 0 0
BITMAP
18
18
18
18
1f
00
00
00
ENDCHAR
STARTCHAR 193
ENCODING 193
SWIDTH 720 0
DWIDTH 8 0
BBX 8 8 0 0
BITMAP
18
18
18
18
ff
00
00
00
ENDCHAR
STARTCHAR 194
ENCODING 194
SWIDTH 720 0
DWIDTH 8 0
BBX 8 8 0 0
BITMAP
00
00
00
00
ff
18
18
18
ENDCHAR
STARTCHAR 195
ENCODING 195
SWIDTH 720 0
DWIDTH 8 0
BBX 8 8 0 0
BITMAP
18
18
18
18
1f
18
18
18
ENDCHAR
STARTCHAR 196
ENCODING 196
SWIDTH 720 0
DWIDTH 8 0
BBX 8 8 0 0
BITMAP
00
00
00
00
ff
00
00
00
ENDCHAR
STARTCHAR 197
ENCODING 197
SWIDTH 720 0
DWIDTH 8 0
BBX 8 8 0 0
BITMAP
18
18
18
18
ff
18
18
18
ENDCHAR
STARTCHAR 198
ENCODING 198
SWIDTH 720 0
DWIDTH 8 0
BBX 8 8 0 0
BITMAP
18
18
1f
18
1f
18
18
18
ENDCHAR
STARTCHAR 199
ENCODING 199
SWIDTH 720 0
DWIDTH 8 0
BBX 8 8 0 0
BITMAP
36
36
36
36
37
36
36
36
ENDCHAR
STARTCHAR 200
ENCODING 200
SWIDTH 720 0
DWIDTH 8 0
BBX 8 8 0 0
BITMAP
36
36
37
30
3f
00
00
00
ENDCHAR
STARTCHAR 201
ENCODING 201
SWIDTH 720 0
DWIDTH 8 0
BBX 8 8 0 0
BITMAP
00
00
3f
30
37
36
36
36
ENDCHAR
STARTCHAR 202
ENCODING 202
SWIDTH 720 0
DWIDTH 8 0
BBX 8 8 0 0
BITMAP
36
36
f7
00
ff
00
00
00
ENDCHAR
STARTCHAR 203
ENCODING 203
SWIDTH 720 0
DWIDTH 8 0
BBX 8 8 0 0
BITMAP
00
00
ff
00
f7
36
36
36
ENDCHAR
STARTCHAR 204
ENCODING 204
SWIDTH 720 0
DWIDTH 8 0
BBX 8 8 0 0
BITMAP
36
36
37
30
37
36
36
36
ENDCHAR
STARTCHAR 205
ENCODING 205
SWIDTH 720 0
DWIDTH 8 0
BBX 8 8 0 0
BITMAP
00
00
ff
00
ff
00
00
00
ENDCHAR
STARTCHAR 206
ENCODING 206
SWIDTH 720 0
DWIDTH 8 0
BBX 8 8 0 0
BITMAP
36
36
f7
00
f7
36
36
36
ENDCHAR
STARTCHAR 207
ENCODING 207
SWIDTH 720 0
DWIDTH 8 0
BBX 8 8 0 0
BITMAP
18
18
ff
00
ff
00
00
00
ENDCHAR
STARTCHAR 208
ENCODING 208
SWIDTH 720 0
DWIDTH 8 0
BBX 8 8 0 0
BITMAP
36
36
36
36
ff
00
00
00
ENDCHAR
STARTCHAR 209
ENCODING 209
SWIDTH 720 0
DWIDTH 8 0
BBX 8 8 0 0
BITMAP
00
00
ff
00
ff
18
18
18
ENDCHAR
STARTCHAR 210
ENCODING 210
SWIDTH 720 0
DWIDTH 8 0
BBX 8 8 0 0
BITMAP
00
00
00
00
ff
36
36
36
ENDCHAR
STARTCHAR 211
ENCODING 211
SWIDTH 720 0
DWIDTH 8 0
BBX 8 8 0 0
BITMAP
36
36
36
36
3f
00
00
00
ENDCHAR
STARTCHAR 212
ENCODING 212
SWIDTH 720 0
DWIDTH 8 0
BBX 8 8 0 0
BITMAP
18
18
1f
18
1f
00
00
00
ENDCHAR
STARTCHAR 213
ENCODING 213
SWIDTH 720 0
DWIDTH 8 0
BBX 8 8 0 0
BITMAP
00
00
1f
18
1f
18
18
18
ENDCHAR
STARTCHAR 214
ENCODING 214
SWIDTH 720 0
DWIDTH 8 0
BBX 8 8 0 0
BITMAP
00
00
00
00
3f
36
36
36
ENDCHAR
STARTCHAR 215
ENCODING 215
SWIDTH 720 0
DWIDTH 8 0
BBX 8 8 0 0
BITMAP
36
36
36
36
f7
36
36
36
ENDCHAR
STARTCHAR 216
ENCODING 216
SWIDTH 720 0
DWIDTH 8 0
BBX 8 8 0 0
BITMAP
18
18
ff
00
ff
18
18
18
ENDCHAR
STARTCHAR 217
ENCODING 217
SWIDTH 720 0
DWIDTH 8 0
BBX 8 8 0 0
BITMAP
18
18
18
18
f8
00
00
00
ENDCHAR
STARTCHAR 218
ENCODING 218
SWIDTH 720 0
DWIDTH 8 0
BBX 8 8 0 0
BITMAP
00
00
00
00
1f
18
18
18
ENDCHAR
STARTCHAR 219
ENCODING 219
SWIDTH 720 0
DWIDTH 8 0
BBX 8 8 0 0
BITMAP
ff
ff
ff
ff
ff
ff
ff
ff
ENDCHAR
STARTCHAR 220
ENCODING 220
SWIDTH 720 0
DWIDTH 8 0
BBX 8 8 0 0
BITMAP
00
00
00
00
ff
ff
ff
ff
ENDCHAR
STARTCHAR 221
ENCODING 221
SWIDTH 720 0
DWIDTH 8 0
BBX 8 8 0 0
BITMAP
f0
f0
f0
f0
f0
f0
f0
f0
ENDCHAR
STARTCHAR 222
ENCODING 222
SWIDTH 720 0
DWIDTH 8 0
BBX 8 8 0 0
BITMAP
0f
0f
0f
0f
0f
0f
0f
0f
ENDCHAR
STARTCHAR 223
ENCODING 223
SWIDTH 720 0
DWIDTH 8 0
BBX 8 8 0 0
BITMAP
ff
ff
ff
ff
00
00
00
00
ENDCHAR
STARTCHAR 224
ENCODING 224
SWIDTH 720 0
DWIDTH 8 0
BBX 8 8 0 0
BITMAP
00
00
76
dc
c8
dc
76
00
ENDCHAR
STARTCHAR 225
ENCODING 225
SWIDTH 720 0
DWIDTH 8 0
BBX 8 8 0 0
BITMAP
00
78
cc
f8
cc
f8
c0
c0
ENDCHAR
STARTCHAR 226
ENCODING 226
SWIDTH 720 0
DWIDTH 8 0
BBX 8 8 0 0
BITMAP
00
fe
c6
c0
c0
c0
c0
00
ENDCHAR
STARTCHAR 227
ENCODING 227
SWIDTH 720 0
DWIDTH 8 0
BBX 8 8 0 0
BITMAP
00
fe
6c
6c
6c
6c
6c
00
ENDCHAR
STARTCHAR 228
ENCODING 228
SWIDTH 720 0
DWIDTH 8 0
BBX 8 8 0 0
BITMAP
fe
66
30
18
30
66
fe
00
ENDCHAR
STARTCHAR 229
ENCODING 229
SWIDTH 720 0
DWIDTH 8 0
BBX 8 8 0 0
BITMAP
00
00
7e
cc
cc
cc
78
00
ENDCHAR
STARTCHAR 230
ENCODING 230
SWIDTH 720 0
DWIDTH 8 0
BBX 8 8 0 0
BITMAP
00
66
66
66
66
7c
60
c0
ENDCHAR
STARTCHAR 231
ENCODING 231
SWIDTH 720 0
DWIDTH 8 0
BBX 8 8 0 0
BITMAP
00
76
dc
18
18
18
18
00
ENDCHAR
STARTCHAR 232
ENCODING 232
SWIDTH 720 0
DWIDTH 8 0
BBX 8 8 0 0
BITMAP
fc
30
78
cc
cc
78
30
fc
ENDCHAR
STARTCHAR 233
ENCODING 233
SWIDTH 720 0
DWIDTH 8 0
BBX 8 8 0 0
BITMAP
38
6c
c6
fe
c6
6c
38
00
ENDCHAR
STARTCHAR 234
ENCODING 234
SWIDTH 720 0
DWIDTH 8 0
BBX 8 8 0 0
BITMAP
38
6c
c6
c6
6c
6c
ee
00
ENDCHAR
STARTCHAR 235
ENCODING 235
SWIDTH 720 0
DWIDTH 8 0
BBX 8 8 0 0
BITMAP
1c
30
18
7c
cc
cc
78
00
ENDCHAR
STARTCHAR 236
ENCODING 236
SWIDTH 720 0
DWIDTH 8 0
BBX 8 8 0 0
BITMAP
00
00
7e
db
db
7e
00
00
ENDCHAR
STARTCHAR 237
ENCODING 237
SWIDTH 720 0
DWIDTH 8 0
BBX 8 8 0 0
BITMAP
06
0c
7e
db
db
7e
60
c0
ENDCHAR
STARTCHAR 238
ENCODING 238
SWIDTH 720 0
DWIDTH 8 0
BBX 8 8 0 0
BITMAP
3c
60
c0
fc
c0
60
3c
00
ENDCHAR
STARTCHAR 239
ENCODING 239
SWIDTH 720 0
DWIDTH 8 0
BBX 8 8 0 0
BITMAP
78
cc
cc
cc
cc
cc
cc
00
ENDCHAR
STARTCHAR 240
ENCODING 240
SWIDTH 720 0
DWIDTH 8 0
BBX 8 8 0 0
BITMAP
00
fc
00
fc
00
fc
00
00
ENDCHAR
STARTCHAR 241
ENCODING 241
SWIDTH 720 0
DWIDTH 8 0
BBX 8 8 0 0
BITMAP
30
30
fc
30
30
00
fc
00
ENDCHAR
STARTCHAR 242
ENCODING 242
SWIDTH 720 0
DWIDTH 8 0
BBX 8 8 0 0
BITMAP
60
30
18
30
60
00
fc
00
ENDCHAR
STARTCHAR 243
ENCODING 243
SWIDTH 720 0
DWIDTH 8 0
BBX 8 8 0 0
BITMAP
18
30
60
30
18
00
fc
00
ENDCHAR
STARTCHAR 244
ENCODING 244
SWIDTH 720 0
DWIDTH 8 0
BBX 8 8 0 0
BITMAP
0e
1b
1b
18
18
18
18
18
ENDCHAR
STARTCHAR 245
ENCODING 245
SWIDTH 720 0
DWIDTH 8 0
BBX 8 8 0 0
BITMAP
18
18
18
18
18
d8
d8
70
ENDCHAR
STARTCHAR 246
ENCODING 246
SWIDTH 720 0
DWIDTH 8 0
BBX 8 8 0 0
BITMAP
30
30
00
fc
00
30
30
00
ENDCHAR
STARTCHAR 247
ENCODING 247
SWIDTH 720 0
DWIDTH 8 0
BBX 8 8 0 0
BITMAP
00
72
9c
00
72
9c
00
00
ENDCHAR
STARTCHAR 248
ENCODING 248
SWIDTH 720 0
DWIDTH 8 0
BBX 8 8 0 0
BITMAP
38
6c
6c
38
00
00
00
00
ENDCHAR
STARTCHAR 249
ENCODING 249
SWIDTH 720 0
DWIDTH 8 0
BBX 8 8 0 0
BITMAP
00
00
00
18
18
00
00
00
ENDCHAR
STARTCHAR 250
ENCODING 250
SWIDTH 720 0
DWIDTH 8 0
BBX 8 8 0 0
BITMAP
00
00
00
00
18
00
00
00
ENDCHAR
STARTCHAR 251
ENCODING 251
SWIDTH 720 0
DWIDTH 8 0
BBX 8 8 0 0
BITMAP
0f
0c
0c
0c
ec
6c
3c
1c
ENDCHAR
STARTCHAR 252
ENCODING 252
SWIDTH 720 0
DWIDTH 8 0
BBX 8 8 0 0
BITMAP
78
6c
6c
6c
6c
00
00
00
ENDCHAR
STARTCHAR 253
ENCODING 253
SWIDTH 720 0
DWIDTH 8 0
BBX 8 8 0 0
BITMAP
78
0c
38
60
7c
00
00
00
ENDCHAR
STARTCHAR 254
ENCODING 254
SWIDTH 720 0
DWIDTH 8 0
BBX 8 8 0 0
BITMAP
00
00
3c
3c
3c
3c
00
00
ENDCHAR
STARTCHAR 255
ENCODING 255
SWIDTH 720 0
DWIDTH 8 0
BBX 8 8 0 0
BITMAP
00
00
00
00
00
00
00
00
ENDCHAR
ENDFONT
